<?xml version="1.0" encoding="UTF-8" standalone="no"?>
<svg width="256" height="256" viewBox="0 0 67.733 67.733" version="1.1" xmlns="http://www.w3.org/2000/svg">
    <g fill="#EEEEEE" transform="translate(-69.740872,-93.142653)">
        <path d="m 92.736338,132.82592 q 0,2.0828 0.2032,4.5212 0.2032,2.4384 0.762,4.4704 0.1016,0.5588 0.508,0.6096 0.4064,0.0508 0.8128,0.0508 0.9144,0 1.6256,-0.0508 0.762,-0.1016 1.778,-0.3048 0.558799,-0.9144 0.609599,-1.524 0.0508,-0.6096 0.0508,-1.524 0,-0.8128 -0.2032,-1.6256 -0.2032,-0.8128 -0.2032,-1.524 0,-0.1016 0,-0.2032 0.0508,-0.1016 0.0508,-0.2032 l -2.793999,-10.0584 -0.9652,-0.9652 q -0.1016,0.1016 -0.3556,0.508 -0.254,0.4064 -0.5588,0.9144 -0.254,0.4572 -0.4572,0.8636 -0.2032,0.4064 -0.2032,0.5588 0,0.0508 -0.1016,0.7112 -0.0508,0.6604 -0.2032,1.5748 -0.1016,0.8636 -0.2032,1.778 -0.1016,0.9144 -0.1524,1.4224 z m -2.2352,-0.6096 q 0,-1.1176 0.1524,-2.8448 0.1524,-1.7272 0.6604,-3.3528 0.5588,-1.6764 1.524,-2.8448 0.9652,-1.2192 2.6416,-1.2192 1.016,0 1.6764,0.9652 0.7112,0.9144 0.9144,1.8796 l 3.200402,15.1384 q 0,1.3716 -0.6096,2.286 -0.5588,0.9144 -1.524003,1.4732 -0.914399,0.508 -2.082799,0.7112 -1.1684,0.254 -2.3368,0.254 -0.9652,0 -1.9304,-0.4064 -0.9652,-0.4572 -1.27,-1.4732 -0.1016,-0.5588 -0.254,-1.9304 -0.1016,-1.4224 -0.254,-2.9464 -0.1524,-1.5748 -0.3048,-2.9464 -0.1016,-1.3716 -0.1524,-1.9304 0,-0.1016 -0.0508,-0.4064 0,-0.3048 0,-0.4064 z m 1.27,-18.1864 q 0,0.762 0.3556,1.3716 0.4064,0.5588 1.016,1.016 0.6096,0.4064 1.3208,0.6604 0.762,0.2032 1.4732,0.2032 1.2192,0 1.8796,-0.8636 0.660399,-0.8636 0.660399,-1.9812 0,-1.4732 -0.914399,-2.3368 -0.9144,-0.8636 -2.3876,-0.8636 -0.5588,0 -1.1684,0.2032 -0.6096,0.2032 -1.1176,0.6096 -0.4572,0.3556 -0.8128,0.8636 -0.3048,0.508 -0.3048,1.1176 z m -2.1844,0 q 0,-1.0668 0.508,-1.9304 0.508,-0.8636 1.27,-1.4732 0.8128,-0.6096 1.778,-0.9144 1.016,-0.3556 1.9812,-0.3556 0.9144,0 1.7272,0.2032 0.8128,0.2032 1.4732,0.6604 0.660399,0.4572 1.015999,1.1684 0.4064,0.7112 0.4064,1.6764 0,0.6096 -0.1016,1.6764 -0.1016,1.016 -0.508,2.032 -0.3556,0.9652 -1.117599,1.6764 -0.762,0.7112 -2.0828,0.7112 -1.27,0 -2.4384,-0.254 -1.1176,-0.3048 -2.032,-0.9144 -0.8636,-0.6604 -1.3716,-1.6256 -0.508,-0.9652 -0.508,-2.3368 z" />
        <path d="m 105.94434,139.98872 q 0,-1.3716 0.508,-2.3368 0.5588,-1.016 1.4224,-1.6256 0.8636,-0.6096 2.032,-0.9144 1.1684,-0.3048 2.4384,-0.3048 1.3208,0 2.032,0.762 0.762,0.7112 1.1176,1.7272 0.4064,0.9652 0.508,2.032 0.1016,1.016 0.1016,1.6256 0,1.016 -0.4064,1.7272 -0.3556,0.6604 -1.016,1.1176 -0.6096,0.4572 -1.4732,0.6604 -0.8128,0.2032 -1.6764,0.2032 -0.9652,0 -1.9812,-0.3556 -0.9652,-0.3048 -1.778,-0.9144 -0.8128,-0.6096 -1.3208,-1.4732 -0.508,-0.8636 -0.508,-1.9304 z m 2.1844,-0.0508 q 0,0.6096 0.3048,1.1684 0.3556,0.508 0.8128,0.9144 0.508,0.3556 1.1176,0.5588 0.6096,0.2032 1.1684,0.2032 1.4732,0 2.3876,-0.8636 0.9144,-0.8636 0.9144,-2.3368 0,-1.1176 -0.6604,-1.9812 -0.6604,-0.8636 -1.8796,-0.8636 -0.7112,0 -1.4732,0.254 -0.7112,0.2032 -1.3208,0.6604 -0.6096,0.4064 -1.016,1.016 -0.3556,0.5588 -0.3556,1.27 z m -1.27,-18.1356 q 0,-0.1016 0,-0.4064 0.0508,-0.3048 0.0508,-0.4064 0.0508,-0.508 0.1524,-1.8796 0.1524,-1.4224 0.3048,-2.9464 0.1524,-1.5748 0.3048,-2.9464 0.1524,-1.4224 0.2032,-1.9812 0.3048,-1.0668 1.27,-1.4732 0.9652,-0.4064 1.9304,-0.4064 1.1684,0 2.3368,0.254 1.1684,0.2032 2.0828,0.762 0.9652,0.508 1.524,1.4224 0.6096,0.8636 0.6096,2.2352 l -3.1496,15.1892 q -0.254,0.9652 -0.9652,1.9304 -0.6604,0.9144 -1.6764,0.9144 -1.6764,0 -2.6416,-1.1684 -0.9652,-1.2192 -1.524,-2.8448 -0.508,-1.6764 -0.6604,-3.4036 -0.1524,-1.7272 -0.1524,-2.8448 z m 2.2352,-0.6096 q 0.0508,0.508 0.1524,1.4224 0.1016,0.9144 0.2032,1.8288 0.1524,0.8636 0.2032,1.524 0.1016,0.6604 0.1016,0.7112 0,0.1524 0.2032,0.5588 0.2032,0.4064 0.4572,0.9144 0.3048,0.4572 0.5588,0.8636 0.254,0.4064 0.3556,0.508 l 0.9652,-0.9652 2.794,-10.0584 q 0,-0.1016 -0.0508,-0.2032 0,-0.1016 0,-0.2032 0,-0.762 0.2032,-1.524 0.2032,-0.8128 0.2032,-1.6764 0,-0.9144 -0.0508,-1.4732 -0.0508,-0.6096 -0.6096,-1.524 -1.016,-0.2032 -1.778,-0.3048 -0.7112,-0.1016 -1.6256,-0.1016 -0.4064,0 -0.8128,0.1016 -0.3556,0.0508 -0.508,0.6096 -0.508,2.032 -0.762,4.4704 -0.2032,2.4384 -0.2032,4.5212 z" />
    </g>
</svg>
