<?xml version="1.0" encoding="UTF-8" standalone="no"?>
<svg width="256" height="256" viewBox="0 0 256 256" version="1.1" xmlns="http://www.w3.org/2000/svg">
    <g fill="#EEEEEE">
        <path d="m 86.912005,149.98401 q 0,7.872 0.768,17.088 0.768,9.216 2.88,16.896 0.384,2.112 1.92,2.304 1.536,0.192 3.072,0.192 3.456,0 6.143995,-0.192 2.88,-0.384 6.72,-1.152 2.112,-3.456 2.304,-5.76 0.192,-2.304 0.192,-5.76 0,-3.072 -0.768,-6.144 -0.768,-3.072 -0.768,-5.76 0,-0.384 0,-0.768 0.192,-0.384 0.192,-0.768 l -10.559995,-38.016 -3.648,-3.648 q -0.384,0.384 -1.344,1.92 -0.96,1.536 -2.112,3.456 -0.96,1.728 -1.728,3.264 -0.768,1.536 -0.768,2.112 0,0.192 -0.384,2.688 -0.192,2.496 -0.768,5.952 -0.384,3.264 -0.768,6.72 -0.384,3.456 -0.576,5.376 z m -8.448,-2.304 q 0,-4.224 0.576,-10.752 0.576,-6.528 2.496,-12.672 2.112,-6.336 5.76,-10.752 3.648,-4.608 9.984,-4.608 3.839995,0 6.335995,3.648 2.688,3.456 3.456,7.104 l 12.096,57.216 q 0,5.184 -2.304,8.64 -2.112,3.456 -5.76,5.568 -3.456,1.92 -7.872,2.688 -4.415995,0.96 -8.831995,0.96 -3.648,0 -7.296,-1.536 -3.648,-1.728 -4.8,-5.568 -0.384,-2.112 -0.96,-7.296 -0.384,-5.376 -0.96,-11.136 -0.576,-5.952 -1.152,-11.136 -0.384,-5.184 -0.576,-7.296 0,-0.384 -0.192,-1.536 0,-1.152 0,-1.536 z m 4.8,-68.736003 q 0,2.88 1.344,5.184 1.536,2.112 3.84,3.84 2.304,1.536 4.992,2.496 2.88,0.768 5.568,0.768 4.607995,0 7.103995,-3.264 2.496,-3.264 2.496,-7.488 0,-5.568 -3.456,-8.832 -3.456,-3.264 -9.023995,-3.264 -2.112,0 -4.416,0.768 -2.304,0.768 -4.224,2.304 -1.728,1.344 -3.072,3.264 -1.152,1.92 -1.152,4.224 z m -8.256,0 q 0,-4.032 1.92,-7.296 1.92,-3.264 4.8,-5.568 3.072,-2.304 6.72,-3.456 3.84,-1.344 7.488,-1.344 3.456,0 6.527995,0.768 3.072,0.768 5.568,2.496 2.496,1.728 3.84,4.416 1.536,2.688 1.536,6.336 0,2.304 -0.384,6.336 -0.384,3.84 -1.92,7.68 -1.344,3.648 -4.224,6.336 -2.88,2.688 -7.871995,2.688 -4.8,0 -9.216,-0.96 -4.224,-1.152 -7.68,-3.456 -3.264,-2.496 -5.184,-6.144 -1.92,-3.648 -1.92,-8.832 z" />
        <path d="m 136.832,177.05601 q 0,-5.184 1.92,-8.832 2.112,-3.84 5.376,-6.144 3.264,-2.304 7.68,-3.456 4.416,-1.152 9.216,-1.152 4.992,0 7.68,2.88 2.88,2.688 4.224,6.528 1.536,3.648 1.92,7.68 0.384,3.84 0.384,6.144 0,3.84 -1.536,6.528 -1.344,2.496 -3.84,4.224 -2.304,1.728 -5.568,2.496 -3.072,0.768 -6.336,0.768 -3.648,0 -7.488,-1.344 -3.648,-1.152 -6.72,-3.456 -3.072,-2.304 -4.992,-5.568 -1.92,-3.264 -1.92,-7.296 z m 8.256,-0.192 q 0,2.304 1.152,4.416 1.344,1.92 3.072,3.456 1.92,1.344 4.224,2.112 2.304,0.768 4.416,0.768 5.568,0 9.024,-3.264 3.456,-3.264 3.456,-8.832 0,-4.224 -2.496,-7.488 -2.496,-3.264 -7.104,-3.264 -2.688,0 -5.568,0.96 -2.688,0.768 -4.992,2.496 -2.304,1.536 -3.84,3.84 -1.344,2.112 -1.344,4.8 z m -4.8,-68.544 q 0,-0.384 0,-1.536 0.192,-1.152 0.192,-1.536 0.192,-1.92 0.576,-7.104003 0.576,-5.376 1.152,-11.136 0.576,-5.952 1.152,-11.136 0.576,-5.376 0.768,-7.488 1.152,-4.032 4.8,-5.568 3.648,-1.536 7.296,-1.536 4.416,0 8.832,0.96 4.416,0.768 7.872,2.88 3.648,1.92 5.76,5.376 2.304,3.264 2.304,8.448 l -11.904,57.408003 q -0.96,3.648 -3.648,7.296 -2.496,3.456 -6.336,3.456 -6.336,0 -9.984,-4.416 -3.648,-4.608 -5.76,-10.752 -1.92,-6.336 -2.496,-12.864 -0.576,-6.528 -0.576,-10.752 z m 8.448,-2.304 q 0.192,1.92 0.576,5.376 0.384,3.456 0.768,6.912 0.576,3.264 0.768,5.76 0.384,2.496 0.384,2.688 0,0.576 0.768,2.112 0.768,1.536 1.728,3.456 1.152,1.728 2.112,3.264 0.96,1.536 1.344,1.92 l 3.648,-3.648 10.56,-38.016003 q 0,-0.384 -0.192,-0.768 0,-0.384 0,-0.768 0,-2.88 0.768,-5.76 0.768,-3.072 0.768,-6.336 0,-3.456 -0.192,-5.568 -0.192,-2.304 -2.304,-5.76 -3.84,-0.768 -6.72,-1.152 -2.688,-0.384 -6.144,-0.384 -1.536,0 -3.072,0.384 -1.344,0.192 -1.92,2.304 -1.92,7.68 -2.88,16.896 -0.768,9.216 -0.768,17.088003 z" />
    </g>
</svg>
